<?xml version="1.0" standalone="no"?>
<!DOCTYPE svg PUBLIC "-//W3C//DTD SVG 20010904//EN"
 "http://www.w3.org/TR/2001/REC-SVG-20010904/DTD/svg10.dtd">
<svg version="1.0" xmlns="http://www.w3.org/2000/svg"
 width="1200.000000pt" height="1200.000000pt" viewBox="0 0 1200.000000 1200.000000"
>

<g id="Logo" transform="translate(0.000000,1200.000000) scale(0.100000,-0.100000)"
fill="#000000" stroke="none">
<path d="M3360 6000 c0 -507 3 -770 10 -770 7 0 10 263 10 770 0 507 -3 770
-10 770 -7 0 -10 -263 -10 -770z"/>
<path d="M2240 6380 l0 -170 60 0 c57 0 60 -1 60 -24 0 -17 -7 -26 -25 -30
-32 -8 -57 -35 -95 -107 -25 -47 -36 -59 -56 -59 -23 0 -28 8 -25 42 3 26 -14
30 -110 22 -88 -6 -91 -7 -86 -30 6 -35 -5 -44 -78 -59 -121 -26 -124 -34
-132 -344 -4 -174 -3 -243 6 -259 l12 -22 498 0 c476 0 500 1 522 19 24 19 24
22 27 238 2 120 0 233 -3 251 -8 45 -67 107 -121 128 -31 12 -50 27 -61 48
-41 80 -78 127 -105 133 -21 4 -28 11 -28 29 0 21 5 23 63 26 l62 3 0 165 0
165 -192 3 -193 2 0 -170z m348 63 l-3 -58 -155 0 -155 0 -3 58 -3 57 161 0
161 0 -3 -57z m-35 -482 c117 -54 180 -150 181 -276 1 -86 -14 -131 -63 -193
-53 -67 -126 -104 -217 -110 -98 -6 -163 16 -230 80 -74 70 -97 128 -92 232 4
98 24 143 90 208 92 90 216 112 331 59z m-573 -21 c13 -9 11 -13 -9 -31 -18
-15 -36 -19 -69 -17 -54 4 -64 21 -25 42 32 18 81 20 103 6z"/>
<path d="M2365 5836 c-17 -7 -43 -28 -58 -45 -92 -110 -19 -273 122 -273 138
0 214 139 141 259 -37 62 -135 90 -205 59z"/>
<path d="M4060 6427 c-22 -11 -63 -62 -72 -89 -3 -8 -15 -4 -35 10 -17 12 -43
22 -59 22 l-27 0 6 -182 c7 -191 24 -447 32 -485 8 -34 37 -45 77 -29 60 26
73 77 60 246 -4 58 -6 114 -4 125 2 12 28 34 64 55 73 42 124 97 137 147 11
45 0 125 -20 145 -49 48 -108 61 -159 35z m49 -64 c35 -67 14 -213 -35 -235
-20 -10 -27 -9 -35 3 -15 22 -7 213 10 232 18 22 48 22 60 0z"/>
<path d="M4344 6416 c-38 -17 -60 -67 -69 -157 -9 -84 -13 -98 -25 -79 -7 12
-12 12 -21 3 -10 -10 -8 -17 8 -35 19 -21 21 -38 25 -205 2 -100 7 -186 11
-190 14 -13 77 -7 93 9 13 12 16 35 15 96 -1 65 3 89 21 126 21 43 40 57 52
37 3 -4 10 -50 16 -102 12 -108 28 -139 69 -139 40 0 83 38 112 99 l23 50 19
-49 c21 -57 55 -81 116 -82 69 -1 81 13 139 155 7 17 19 27 32 27 17 0 20 -6
20 -51 0 -60 15 -116 40 -149 14 -18 26 -23 56 -22 53 2 83 28 123 106 l35 67
19 -51 c21 -57 55 -81 116 -82 69 -1 81 13 139 155 7 16 19 27 31 27 25 0 71
59 71 91 0 23 -1 22 -19 -7 -19 -30 -57 -64 -73 -64 -5 0 -8 11 -8 25 0 48
-29 101 -66 118 -45 22 -59 21 -110 -4 -40 -19 -47 -29 -112 -162 -102 -211
-122 -218 -122 -39 0 172 4 188 52 207 44 17 43 37 -2 28 -28 -5 -30 -4 -30
28 -1 40 -30 79 -58 79 -20 0 -34 -24 -49 -89 -7 -27 -16 -36 -43 -45 -45 -14
-48 -42 -4 -38 l32 3 -8 -42 c-11 -59 -60 -95 -60 -44 0 48 -29 101 -66 118
-45 22 -59 21 -110 -3 -38 -19 -47 -31 -98 -134 -31 -63 -65 -121 -75 -130
-18 -16 -19 -13 -23 76 -4 97 -21 141 -56 150 -33 9 -81 -13 -111 -49 l-31
-38 0 66 c0 46 5 70 14 78 40 33 59 176 31 230 -11 23 -36 43 -48 41 -1 -1
-16 -7 -33 -14z m62 -61 c9 -35 -4 -129 -21 -151 -13 -17 -14 -9 -15 72 0 50
3 94 7 97 13 13 23 7 29 -18z m488 -281 c3 -9 6 -29 6 -46 0 -26 -2 -29 -15
-18 -8 7 -15 28 -15 46 0 35 13 46 24 18z m580 0 c3 -9 6 -29 6 -46 0 -26 -2
-29 -15 -18 -8 7 -15 28 -15 46 0 35 13 46 24 18z m-632 -79 c11 -14 28 -25
39 -25 25 0 24 -23 -2 -77 -35 -73 -79 -48 -79 45 0 39 9 82 17 82 3 0 14 -11
25 -25z m580 0 c11 -14 28 -25 39 -25 25 0 24 -23 -2 -77 -35 -73 -79 -48 -79
45 0 39 9 82 17 82 3 0 14 -11 25 -25z"/>
<path d="M7254 6416 c-38 -17 -60 -67 -69 -157 -9 -84 -13 -98 -25 -79 -7 12
-12 12 -21 3 -10 -10 -8 -18 9 -36 18 -19 22 -35 22 -88 0 -60 -4 -70 -53
-154 -30 -49 -58 -90 -64 -92 -10 -4 -28 231 -19 246 3 4 2 69 -2 144 -7 124
-10 139 -32 162 -56 59 -79 17 -87 -161 l-5 -112 -32 13 c-36 15 -102 7 -141
-19 -14 -9 -40 -48 -59 -86 -69 -140 -126 -199 -161 -170 -22 18 -19 48 9 85
56 73 72 158 36 190 -49 44 -136 1 -164 -82 -46 -134 8 -253 116 -253 54 0 88
23 128 87 l28 44 12 -35 c15 -46 44 -66 94 -66 50 0 101 32 123 77 l17 36 17
-64 c19 -70 45 -99 88 -99 33 0 67 33 114 112 l34 57 7 -81 c4 -45 9 -84 12
-87 2 -3 20 -5 39 -5 56 0 68 20 66 112 -1 65 3 89 21 126 21 43 40 57 52 37
3 -4 10 -50 16 -102 6 -51 17 -104 26 -116 32 -50 108 -15 152 70 19 35 20 36
26 14 10 -42 51 -77 91 -77 44 0 78 21 107 67 l21 36 13 -42 c17 -58 40 -81
82 -81 25 0 41 8 63 31 l29 31 0 -33 c0 -41 7 -51 43 -67 19 -8 34 -9 47 -2
20 11 40 60 40 100 0 25 72 138 98 154 5 3 11 -33 14 -89 6 -114 22 -145 72
-145 36 0 79 39 111 100 9 17 17 30 20 30 2 0 9 -18 15 -39 12 -46 60 -91 96
-91 39 0 77 25 104 69 23 38 40 52 40 32 0 -4 11 -20 25 -35 45 -49 122 -30
167 41 l21 36 13 -42 c17 -58 40 -81 82 -81 25 0 41 8 63 31 16 17 29 35 29
40 0 19 16 7 39 -30 25 -41 67 -71 99 -71 21 0 76 56 94 96 15 32 25 30 33 -6
10 -46 61 -80 120 -80 44 0 52 4 92 45 39 41 43 43 43 22 0 -27 28 -57 53 -57
25 0 37 33 53 139 15 100 54 186 84 186 13 0 14 -24 11 -152 l-3 -152 26 -12
c43 -20 57 3 68 118 9 96 33 170 53 166 6 -2 12 -54 15 -119 4 -100 8 -118 24
-130 33 -24 82 -17 119 16 40 35 118 148 141 205 19 46 18 46 -68 -66 -62 -80
-97 -119 -109 -119 -5 0 -6 39 -2 93 6 83 5 98 -13 134 -32 61 -80 65 -131 9
-27 -29 -41 -33 -41 -12 0 19 -24 37 -63 46 -30 6 -39 3 -65 -21 -34 -32 -42
-35 -42 -16 -1 16 -35 57 -49 57 -16 0 -20 -13 -32 -96 -10 -65 -19 -91 -55
-147 -48 -73 -83 -99 -109 -77 -22 18 -19 48 9 85 56 73 72 158 36 190 -49 44
-133 2 -165 -82 -27 -72 -71 -157 -90 -173 -22 -18 -37 -1 -59 64 -19 58 -21
109 -4 139 21 40 48 162 54 248 6 80 5 88 -15 108 -42 42 -108 -8 -136 -101
-21 -71 -33 -216 -26 -307 6 -65 4 -77 -17 -112 -42 -70 -54 -52 -57 90 -3
134 -2 127 -21 145 -25 26 -51 19 -63 -15 l-11 -31 -18 22 c-25 31 -82 29
-132 -4 -29 -19 -48 -46 -80 -113 -23 -48 -53 -103 -67 -122 -25 -32 -27 -33
-40 -15 -11 14 -13 46 -11 127 3 119 0 127 -59 127 -37 0 -47 -14 -58 -77 -7
-45 -81 -174 -104 -181 -12 -4 -13 7 -6 64 15 121 12 161 -12 185 -38 38 -82
14 -154 -85 l-28 -38 -7 41 c-5 32 -15 48 -41 68 -46 36 -64 24 -78 -53 -11
-57 -37 -117 -69 -159 -27 -36 -38 -5 -41 112 -3 136 -2 129 -21 147 -25 26
-51 19 -63 -15 l-11 -31 -18 22 c-14 18 -28 23 -57 22 -64 -2 -104 -38 -160
-141 -28 -51 -57 -99 -66 -107 -15 -14 -17 -7 -21 78 -4 97 -21 141 -56 150
-33 9 -81 -13 -111 -49 l-31 -38 0 66 c0 46 5 70 14 78 40 33 59 176 31 230
-11 23 -36 43 -48 41 -1 -1 -16 -7 -33 -14z m62 -61 c9 -35 -4 -129 -21 -151
-13 -17 -14 -9 -15 72 0 50 3 94 7 97 13 13 23 7 29 -18z m1901 -82 c-2 -61
-11 -126 -20 -148 l-16 -40 0 65 c-1 60 12 171 25 213 12 40 16 10 11 -90z
m-2679 -224 c2 -23 -6 -47 -23 -74 l-26 -40 4 66 c3 37 8 72 12 78 12 21 30 5
33 -30z m2960 0 c2 -23 -6 -47 -23 -74 l-26 -40 4 66 c3 37 8 72 12 78 12 21
30 5 33 -30z m-2610 -9 c12 -18 22 -42 22 -53 0 -25 -58 -127 -76 -134 -54
-21 -60 125 -9 204 20 30 33 26 63 -17z m896 18 c25 -35 20 -88 -13 -140 -55
-86 -96 -84 -95 4 1 52 20 105 52 141 20 23 38 22 56 -5z m1100 0 c25 -35 20
-88 -13 -140 -55 -86 -96 -84 -95 4 1 52 20 105 52 141 20 23 38 22 56 -5z"/>
<path d="M6198 6362 c-25 -29 -59 -86 -83 -139 -22 -50 -43 -89 -46 -87 -3 2
-21 43 -39 91 -41 109 -70 143 -121 143 -20 0 -42 -6 -49 -14 -20 -26 -39
-117 -50 -246 -15 -173 -41 -375 -51 -391 -11 -19 -21 -6 -28 38 -7 43 -27 54
-39 22 -11 -28 5 -83 29 -105 24 -22 98 -29 142 -15 69 23 88 112 91 424 1
140 4 200 10 185 6 -13 18 -41 28 -63 25 -56 48 -135 48 -166 0 -15 -7 -43
-16 -64 -18 -44 -12 -80 16 -95 65 -35 97 51 58 153 -14 36 0 84 55 195 56
112 67 109 47 -13 -27 -168 -19 -439 16 -493 20 -31 73 -62 105 -62 37 0 78
34 62 51 -10 10 -15 9 -27 -1 -35 -28 -37 37 -16 409 l13 235 -32 28 c-46 41
-71 37 -123 -20z m-123 -451 c-12 -12 -26 19 -19 40 7 24 7 24 15 -5 5 -17 6
-32 4 -35z"/>
<path d="M8488 6219 c-22 -12 -23 -42 -4 -58 21 -17 77 -9 90 12 9 15 7 22
-13 38 -26 21 -47 24 -73 8z"/>
</g>
</svg>
